<svg viewBox="0 0 420 420" version="1.1" xmlns="http://www.w3.org/2000/svg">

<rect width="420" height="420" fill="#ffffff"/>

    <path
       style="fill:#000000;stroke-width:0.479014"
       d="M 79.602851,163.99374 C 130.97644,112.11532 181.91583,59.630694 235.84269,10.426432 258.41778,-3.2821442 289.32244,7.7489914 305.33014,26.719325 315.665,38.696861 317.95193,61.572949 315.16108,72.64511 312.73859,56.807274 311.70237,34.454206 293.21907,29.097255 274.51994,21.174248 244.66618,28.10964 243.85799,52.202909 245.08869,84.974147 243.21902,123.53308 216.47186,146.60393 201.48071,159.08452 181.84775,164.33731 162.61812,163.08847 134.94637,163.39022 107.27461,163.69198 79.602851,163.99374 Z"
/>
    <path
       style="fill:#808080;stroke-width:0.479014"
       d="M 337.92869,103.30509 C 328.51252,89.299883 310.78465,79.728706 314.94148,59.814196 312.1636,41.301268 298.26753,22.219423 277.70945,23.367152 255.47489,21.343135 238.90479,42.22582 243.72199,63.510778 243.30377,94.604876 238.39484,131.56666 210.59166,150.62603 203.62375,155.76978 178.64707,162.08938 200.96753,162.69553 233.06246,167.63643 269.85581,161.06174 290.93325,134.21478 303.97702,122.29966 304.49198,95.753561 327.29851,102.89799 330.84463,102.93921 334.39018,103.06641 337.92869,103.30509 Z"
/>
    <path
       style="fill:#000000;stroke-width:0.479014"
       d="M 260.49924,52.262704 C 263.24557,70.111033 289.54488,73.068142 293.3194,55.277604 285.73326,60.663657 273.66506,72.374736 265.0756,58.155732 L 262.63502,55.322267 Z"
 />

</svg>